<?xml version="1.0" encoding="UTF-8" standalone="no"?>
<svg
	xmlns:svg="http://www.w3.org/2000/svg"
	xmlns:xlink="http://www.w3.org/1999/xlink"
	xmlns="http://www.w3.org/2000/svg"
	width="512px"
	height="192px">
	<style type="text/css">
	.men{
		stroke: none;
		fill: #000;
	}
	</style>
	<defs>
		<g id="compass1">
			<path d="m -22,0 a 22,22,0,0,0,44,0 a 22,22,0,0,0,-44,0" class="men"/>
		</g>
		<g id="compass2">
			<path d="m -22,0 a 22,22,0,0,0,44,0 a 22,22,0,0,0,-44,0" class="men"/>
		</g>
		<g id="compass3">
			<path d="m -22,0 a 22,22,0,0,0,44,0 a 22,22,0,0,0,-44,0" class="men"/>
		</g>
		<g id="hari">
			<path d="M 0,-20 14.14,14.14 0,5 -14.14,14.14" style="stroke: none; fill: #FFF"/>
		</g>
	</defs>
	<g>
		<g transform="translate(  0, 0) translate(32, 32) scale(1, 0.5) scale(0.75)"><use xlink:href="#compass1"/><use xlink:href="#hari" transform="rotate(  0)"/></g>
		<g transform="translate( 64, 0) translate(32, 32) scale(1, 0.5) scale(0.75)"><use xlink:href="#compass1"/><use xlink:href="#hari" transform="rotate( 45)"/></g>
		<g transform="translate(128, 0) translate(32, 32) scale(1, 0.5) scale(0.75)"><use xlink:href="#compass1"/><use xlink:href="#hari" transform="rotate( 90)"/></g>
		<g transform="translate(192, 0) translate(32, 32) scale(1, 0.5) scale(0.75)"><use xlink:href="#compass1"/><use xlink:href="#hari" transform="rotate(135)"/></g>
		<g transform="translate(256, 0) translate(32, 32) scale(1, 0.5) scale(0.75)"><use xlink:href="#compass1"/><use xlink:href="#hari" transform="rotate(180)"/></g>
		<g transform="translate(320, 0) translate(32, 32) scale(1, 0.5) scale(0.75)"><use xlink:href="#compass1"/><use xlink:href="#hari" transform="rotate(225)"/></g>
		<g transform="translate(384, 0) translate(32, 32) scale(1, 0.5) scale(0.75)"><use xlink:href="#compass1"/><use xlink:href="#hari" transform="rotate(270)"/></g>
		<g transform="translate(448, 0) translate(32, 32) scale(1, 0.5) scale(0.75)"><use xlink:href="#compass1"/><use xlink:href="#hari" transform="rotate(315)"/></g>
	</g>
	
	<g transform="translate(0, 64)">
		<g transform="translate(  0, 0) translate(32, 32) scale(1, 0.5) scale(0.5)"><use xlink:href="#compass2"/><use xlink:href="#hari" transform="rotate(  0)"/></g>
		<g transform="translate( 64, 0) translate(32, 32) scale(1, 0.5) scale(0.5)"><use xlink:href="#compass2"/><use xlink:href="#hari" transform="rotate( 45)"/></g>
		<g transform="translate(128, 0) translate(32, 32) scale(1, 0.5) scale(0.5)"><use xlink:href="#compass2"/><use xlink:href="#hari" transform="rotate( 90)"/></g>
		<g transform="translate(192, 0) translate(32, 32) scale(1, 0.5) scale(0.5)"><use xlink:href="#compass2"/><use xlink:href="#hari" transform="rotate(135)"/></g>
		<g transform="translate(256, 0) translate(32, 32) scale(1, 0.5) scale(0.5)"><use xlink:href="#compass2"/><use xlink:href="#hari" transform="rotate(180)"/></g>
		<g transform="translate(320, 0) translate(32, 32) scale(1, 0.5) scale(0.5)"><use xlink:href="#compass2"/><use xlink:href="#hari" transform="rotate(225)"/></g>
		<g transform="translate(384, 0) translate(32, 32) scale(1, 0.5) scale(0.5)"><use xlink:href="#compass2"/><use xlink:href="#hari" transform="rotate(270)"/></g>
		<g transform="translate(448, 0) translate(32, 32) scale(1, 0.5) scale(0.5)"><use xlink:href="#compass2"/><use xlink:href="#hari" transform="rotate(315)"/></g>
	</g>
	
	<g transform="translate(0, 128)">
		<g transform="translate(  0, 0) translate(32, 32) scale(0.5)"><use xlink:href="#compass3"/><use xlink:href="#hari" transform="rotate(  0)"/></g>
		<g transform="translate( 64, 0) translate(32, 32) scale(0.5)"><use xlink:href="#compass3"/><use xlink:href="#hari" transform="rotate( 45)"/></g>
		<g transform="translate(128, 0) translate(32, 32) scale(0.5)"><use xlink:href="#compass3"/><use xlink:href="#hari" transform="rotate( 90)"/></g>
		<g transform="translate(192, 0) translate(32, 32) scale(0.5)"><use xlink:href="#compass3"/><use xlink:href="#hari" transform="rotate(135)"/></g>
		<g transform="translate(256, 0) translate(32, 32) scale(0.5)"><use xlink:href="#compass3"/><use xlink:href="#hari" transform="rotate(180)"/></g>
		<g transform="translate(320, 0) translate(32, 32) scale(0.5)"><use xlink:href="#compass3"/><use xlink:href="#hari" transform="rotate(225)"/></g>
		<g transform="translate(384, 0) translate(32, 32) scale(0.5)"><use xlink:href="#compass3"/><use xlink:href="#hari" transform="rotate(270)"/></g>
		<g transform="translate(448, 0) translate(32, 32) scale(0.5)"><use xlink:href="#compass3"/><use xlink:href="#hari" transform="rotate(315)"/></g>
	</g>
</svg>
